<svg width="1366" height="381" viewBox="0 0 1366 381" fill="none" xmlns="http://www.w3.org/2000/svg">
<path fill-rule="evenodd" clip-rule="evenodd" d="M0 344.335L56.9167 301.293C113.833 258.251 227.667 172.167 341.5 157.82C455.333 143.473 569.167 200.862 683 258.251C796.833 315.64 910.667 373.029 1024.5 380.203C1138.33 387.377 1252.17 344.335 1309.08 322.814L1366 301.293V0H1309.08C1252.17 0 1138.33 0 1024.5 0C910.667 0 796.833 0 683 0C569.167 0 455.333 0 341.5 0C227.667 0 113.833 0 56.9167 0H0V344.335Z" fill="#FF16E8" fill-opacity="0.7"/>
</svg>
