<svg width="1366" height="506" viewBox="0 0 1366 506" fill="none" xmlns="http://www.w3.org/2000/svg">
<path fill-rule="evenodd" clip-rule="evenodd" d="M0 258.094L56.9167 247.34C113.833 236.586 227.667 215.078 341.5 182.817C455.333 150.555 569.167 107.539 683 118.293C796.833 129.047 910.667 193.57 1024.5 182.817C1138.33 172.063 1252.17 86.0313 1309.08 43.0157L1366 0V258.094H1309.08C1252.17 258.094 1138.33 258.094 1024.5 258.094C910.667 258.094 796.833 258.094 683 258.094C569.167 258.094 455.333 258.094 341.5 258.094C227.667 258.094 113.833 258.094 56.9167 258.094H0Z" fill="#8F00FF"/>
<path fill-rule="evenodd" clip-rule="evenodd" d="M0 143.48L57 161.164C114 177.585 228 212.952 342 221.794C455 229.373 569 212.952 683 195.268C797 177.585 911 161.164 1025 170.006C1138 177.585 1252 212.952 1309 229.373L1366 247.057V506H1309C1252 506 1138 506 1025 506C911 506 797 506 683 506C569 506 455 506 342 506C228 506 114 506 57 506H0V143.48Z" fill="#FF16E8"/>
</svg>
