<svg width="1366" height="700" viewBox="0 0 1366 700" fill="none" xmlns="http://www.w3.org/2000/svg">
<path fill-rule="evenodd" clip-rule="evenodd" d="M0 414.25L56.9167 438.062C113.833 461.875 227.667 509.5 341.5 485.687C455.333 461.875 569.167 366.625 683 390.437C796.833 414.25 910.667 557.125 1024.5 565.062C1138.33 573 1252.17 446 1309.08 382.5L1366 319V700H1309.08C1252.17 700 1138.33 700 1024.5 700C910.667 700 796.833 700 683 700C569.167 700 455.333 700 341.5 700C227.667 700 113.833 700 56.9167 700H0V414.25Z" fill="#9600AE" fill-opacity="0.1"/>
<path fill-rule="evenodd" clip-rule="evenodd" d="M1366 377L1320.47 314.167C1274.93 251.333 1183.87 125.667 1092.8 118.685C1001.73 111.704 910.667 223.407 819.6 244.352C728.533 265.296 637.467 195.481 546.4 195.481C455.333 195.481 364.267 265.296 273.2 251.333C182.133 237.37 91.0667 139.63 45.5333 90.7592L1.52588e-05 41.8889V-1.66893e-05H45.5333C91.0667 -1.66893e-05 182.133 -1.66893e-05 273.2 -1.66893e-05C364.267 -1.66893e-05 455.333 -1.66893e-05 546.4 -1.66893e-05C637.467 -1.66893e-05 728.533 -1.66893e-05 819.6 -1.66893e-05C910.667 -1.66893e-05 1001.73 -1.66893e-05 1092.8 -1.66893e-05C1183.87 -1.66893e-05 1274.93 -1.66893e-05 1320.47 -1.66893e-05H1366V377Z" fill="#FF16E8" fill-opacity="0.05"/>
<path fill-rule="evenodd" clip-rule="evenodd" d="M0 476.631L37.565 485.938C76.2683 495.245 151.398 513.859 227.667 495.245C303.935 476.631 379.065 420.788 455.333 411.481C531.602 402.174 606.732 439.402 683 448.709C759.268 458.017 834.398 439.402 910.667 448.709C986.935 458.017 1062.07 495.245 1138.33 523.166C1214.6 551.087 1289.73 569.701 1328.43 579.008L1366 588.315V700H1328.43C1289.73 700 1214.6 700 1138.33 700C1062.07 700 986.935 700 910.667 700C834.398 700 759.268 700 683 700C606.732 700 531.602 700 455.333 700C379.065 700 303.935 700 227.667 700C151.398 700 76.2683 700 37.565 700H0V476.631Z" fill="#9600AE" fill-opacity="0.07"/>
<path fill-rule="evenodd" clip-rule="evenodd" d="M1366 458L1328 389.734C1290 322.71 1214 186.179 1138 152.667C1062 119.154 987 186.179 911 186.179C835 186.179 759 119.154 683 93.0894C607 68.2656 531 84.4011 455 143.978C379 203.556 304 305.333 228 330.157C152 356.222 76 305.333 38 279.268L0 254.444V-1.77622e-05H38C76 -1.77622e-05 152 -1.77622e-05 228 -1.77622e-05C304 -1.77622e-05 379 -1.77622e-05 455 -1.77622e-05C531 -1.77622e-05 607 -1.77622e-05 683 -1.77622e-05C759 -1.77622e-05 835 -1.77622e-05 911 -1.77622e-05C987 -1.77622e-05 1062 -1.77622e-05 1138 -1.77622e-05C1214 -1.77622e-05 1290 -1.77622e-05 1328 -1.77622e-05H1366V458Z" fill="#9600AE" fill-opacity="0.02"/>
</svg>
